. 
  
http://www.torrentday.com/        :     The Hottest Private Tracker On The Net!!!


               www . TorrentDay . Com 
(((((((((((((= Enjoy No RAR releases =))))))))))))))))))))


...................................NFO:....................................

.                               Twelve 2010 DVDRip Xvid AC3-*THC*


General
Complete name : D:\Twelve 2010 DVDRip Xvid AC3-THC\Twelve 2010 DVDRip Xvid AC3-THC.avi
Format : AVI
Format/Info : Audio Video Interleave
Format profile : OpenDML
File size : 1.40 GiB
Duration : 1h 34mn
Overall bit rate : 2 112 Kbps
Writing application : AVI-Mux GUI 1.17.8.3, Feb 16 201019:42:50

Video
ID : 0
Format : MPEG-4 Visual
Format profile : Advanced Simple@L5
Format settings, BVOP : Yes
Format settings, QPel : No
Format settings, GMC : No warppoints
Format settings, Matrix : Default (MPEG)
Codec ID : XVID
Codec ID/Hint : XviD
Duration : 1h 34mn
Bit rate : 1 659 Kbps
Width : 720 pixels
Height : 384 pixels
Display aspect ratio : 1.875
Frame rate : 23.976 fps
Color space : YUV
Chroma subsampling : 4:2:0
Bit depth : 8 bits
Scan type : Progressive
Compression mode : Lossy
Bits/(Pixel*Frame) : 0.250
Stream size : 1.10 GiB (79%)
Writing library : XviD 1.2.1 (UTC 2008-12-04)

Audio
ID : 1
Format : AC-3
Format/Info : Audio Coding 3
Mode extension : CM (complete main)
Codec ID : 2000
Duration : 1h 34mn
Bit rate mode : Constant
Bit rate : 448 Kbps
Channel(s) : 6 channels
Channel positions : Front: L C R, Side: L R, LFE
Sampling rate : 48.0 KHz
Bit depth : 16 bits
Compression mode : Lossy
Stream size : 303 MiB (21%)
Alignment : Aligned on interleaves
Interleave, duration : 64 ms (1.53 video frames)
Interleave, preload duration : 192 ms
Title : 5.1ch 448kbps english

Actors: Chace Crawford, Emma Roberts, Rory Culkin, Philip Ettinger, Esti Ginzburg
Directors: Joel Schumacher
Writers: Jordan Melamed, Nick McDonell
Producers: Aaron Cooley, Charlie Corwin, Christophe Riandee, Frederic Golchan, Hal Greenblatt
Language: English
Subtitles: English, French, Spanish
Rated: R (Restricted)
Studio: 20th Century Fox
DVD Release Date: December 28, 2010
Run Time: 93 minutes

Sample Included: Yes
Encoder: Freebee269

Link: http://www.imdb.com/title/tt1407084/

Plot:  Twelve Poster 	
More at IMDbPro 
Twelve (2010)
15  93 min  -  Drama | Thriller   -  19 August 2010 (Israel)
    1 2 3 4 5 6 7 8 9 10 5.5/10 X  
Users: 5.5/10 (1,824 votes) 15 reviews | Critics: 42 reviews

A young drug dealer watches as his high-rolling life is dismantled in the wake of his cousin's murder, which sees his best friend arrested for the crime. 

eNJOY